<svg xmlns="http://www.w3.org/2000/svg" viewBox="0 0 512 512">
  <rect width="512" height="512" rx="96" fill="#09090b"/>
  <path d="M256 64c73 0 132 59 132 132 0 87-86 132-86 190 0 34-20 62-46 62s-46-28-46-62c0-58-86-103-86-190 0-73 59-132 132-132z" fill="#3f0d19" stroke="#e11d48" stroke-width="18"/>
  <path d="M176 222h160M202 158c18-18 47-18 65 0M245 318c10 10 28 10 38 0" fill="none" stroke="#f5f5f4" stroke-width="22" stroke-linecap="round"/>
  <circle cx="210" cy="230" r="18" fill="#f5f5f4"/>
  <circle cx="302" cy="230" r="18" fill="#f5f5f4"/>
  <path d="M152 392h208" stroke="#10b981" stroke-width="18" stroke-linecap="round"/>
</svg>
